# xmcd
#
# Track frame offsets: 
#        150
#        26679
#        45622
#        76230
#        107308
#        122704
#        130629
#        164467
#        197212
#        215154
#        236575
#        261615
#        270646
#        298922
#        317352
#
# Disc length: 4468 seconds
#
# Revision: 1
# Processed by: cddbd v1.5.2PL0 Copyright (c) Steve Scherf et al.
# Submitted via: ExactAudioCopyFreeDBPlugin 1.0
#
DISCID=db11720f
DTITLE=Perry Rhodan - Silber Edition 19 - Das zweite Imperium [CD 10)
DYEAR=2009
DGENRE=Hörbuch
TTITLE0=Kapitel 25 - 02
TTITLE1=Kapitel 25 - 03
TTITLE2=Kapitel 25 - 04
TTITLE3=Kapitel 25 - 05
TTITLE4=Kapitel 25 - 06
TTITLE5=Kapitel 26 - 01
TTITLE6=Kapitel 27 - 01
TTITLE7=Kapitel 27 - 02
TTITLE8=Kapitel 27 - 03
TTITLE9=Kapitel 27 - 04
TTITLE10=Kapitel 27 - 05
TTITLE11=Kapitel 28 - 01
TTITLE12=Kapitel 29 - 01
TTITLE13=Kapitel 29 - 02
TTITLE14=Kapitel 29 - 03
EXTD=
EXTT0=
EXTT1=
EXTT2=
EXTT3=
EXTT4=
EXTT5=
EXTT6=
EXTT7=
EXTT8=
EXTT9=
EXTT10=
EXTT11=
EXTT12=
EXTT13=
EXTT14=
PLAYORDER=
